<svg width="457" height="127" viewBox="0 0 457 127" fill="none" xmlns="http://www.w3.org/2000/svg">
<path d="M7.95829 7.894C7.33296 7.894 6.83362 7.656 6.46029 7.18C6.08696 6.69467 5.90029 6.11133 5.90029 5.43C5.90029 4.29133 6.15696 3.274 6.67029 2.378C7.19296 1.47267 7.94429 0.679332 8.92429 -0.00200176L9.48429 0.823998C8.96162 1.22533 8.53696 1.65 8.21029 2.098C7.89296 2.546 7.73429 2.938 7.73429 3.274C7.73429 3.59133 7.84162 3.834 8.05629 4.002C8.27096 4.17 8.51829 4.324 8.79829 4.464C9.08762 4.604 9.33962 4.786 9.55429 5.01C9.76896 5.234 9.87629 5.56067 9.87629 5.99C9.87629 6.53133 9.69429 6.984 9.33029 7.348C8.96629 7.712 8.50896 7.894 7.95829 7.894ZM2.52629 7.894C1.91029 7.894 1.41562 7.656 1.04229 7.18C0.668958 6.69467 0.482291 6.11133 0.482291 5.43C0.482291 4.29133 0.738958 3.274 1.25229 2.378C1.76562 1.47267 2.51229 0.679332 3.49229 -0.00200176L4.05229 0.823998C3.52962 1.22533 3.10496 1.65 2.77829 2.098C2.45162 2.546 2.28829 2.938 2.28829 3.274C2.28829 3.59133 2.39562 3.834 2.61029 4.002C2.83429 4.17 3.08629 4.324 3.36629 4.464C3.64629 4.604 3.89362 4.786 4.10829 5.01C4.33229 5.234 4.44429 5.56067 4.44429 5.99C4.44429 6.53133 4.26229 6.984 3.89829 7.348C3.53429 7.712 3.07696 7.894 2.52629 7.894ZM28.5236 23.518L14.8596 4.73V21.768L17.3376 22.328V23H11.1636V22.328L13.6556 21.768V2.882L11.1636 2.35V1.678H17.0156L28.3136 17.022V2.882L25.8496 2.35V1.678H32.0236V2.35L29.5176 2.882V23.518H28.5236ZM39.5082 23.294C38.0708 23.294 36.7968 22.9627 35.6862 22.3C34.5755 21.628 33.7028 20.718 33.0682 19.57C32.4428 18.4127 32.1302 17.1107 32.1302 15.664C32.1302 14.208 32.4428 12.906 33.0682 11.758C33.7028 10.61 34.5755 9.70467 35.6862 9.042C36.7968 8.37 38.0708 8.034 39.5082 8.034C40.9455 8.034 42.2148 8.37 43.3162 9.042C44.4268 9.70467 45.2995 10.61 45.9342 11.758C46.5688 12.906 46.8862 14.208 46.8862 15.664C46.8862 17.1107 46.5688 18.4127 45.9342 19.57C45.2995 20.718 44.4268 21.628 43.3162 22.3C42.2148 22.9627 40.9455 23.294 39.5082 23.294ZM39.4802 22.006C40.1615 22.006 40.7635 21.8567 41.2862 21.558C41.8088 21.25 42.2475 20.816 42.6022 20.256C42.9662 19.6867 43.2415 19.0147 43.4282 18.24C43.6148 17.456 43.7082 16.588 43.7082 15.636C43.7082 14.6933 43.6148 13.8347 43.4282 13.06C43.2508 12.2853 42.9848 11.618 42.6302 11.058C42.2755 10.498 41.8368 10.0687 41.3142 9.77C40.7915 9.462 40.1895 9.308 39.5082 9.308C38.8268 9.308 38.2248 9.462 37.7022 9.77C37.1795 10.0687 36.7408 10.498 36.3862 11.058C36.0315 11.618 35.7608 12.29 35.5742 13.074C35.3968 13.8487 35.3082 14.712 35.3082 15.664C35.3082 16.616 35.3968 17.4793 35.5742 18.254C35.7608 19.0287 36.0315 19.696 36.3862 20.256C36.7408 20.816 37.1748 21.25 37.6882 21.558C38.2108 21.8567 38.8082 22.006 39.4802 22.006ZM60.8577 23.294L56.4897 10.12C56.3684 9.68133 56.1724 9.38733 55.9017 9.238C55.6404 9.07933 55.2437 8.97667 54.7117 8.93V8.314H61.4317V8.93C60.4704 8.99533 59.8871 9.112 59.6817 9.28C59.4764 9.448 59.4624 9.826 59.6397 10.414L62.3697 19.388H62.4817L65.3937 11.016C65.4777 10.8013 65.5384 10.6053 65.5757 10.428C65.6224 10.2507 65.6457 10.092 65.6457 9.952C65.6457 9.66267 65.5057 9.448 65.2257 9.308C64.9457 9.15867 64.4277 9.03267 63.6717 8.93V8.314H69.4257V8.93C68.7257 9.042 68.1984 9.17733 67.8437 9.336C67.4891 9.49467 67.2231 9.70933 67.0457 9.98C66.8777 10.2413 66.7097 10.6007 66.5417 11.058L62.2297 23.294H60.8577ZM52.3317 23.294L47.7117 10.12C47.5624 9.68133 47.3617 9.38733 47.1097 9.238C46.8577 9.07933 46.3817 8.97667 45.6817 8.93V8.314H52.8917V8.93C52.2477 8.96733 51.7764 9.028 51.4777 9.112C51.1884 9.18667 51.0251 9.322 50.9877 9.518C50.9597 9.714 51.0017 10.0127 51.1137 10.414L53.8437 19.388H53.9417L57.0357 10.806L58.1837 10.862L53.6617 23.294H52.3317ZM73.4711 23V22.384L75.5851 21.95V2.504L73.5131 1.748V1.328L78.1051 -0.00200176H78.4271V21.95L80.4851 22.384V23H73.4711ZM82.8231 23V22.384L84.8671 21.978V12.99C84.8671 11.8793 84.6431 11.0533 84.1951 10.512C83.7471 9.96133 83.0237 9.686 82.0251 9.686C81.3157 9.686 80.6391 9.854 79.9951 10.19C79.3511 10.526 78.7444 10.9927 78.1751 11.59V10.456C79.0337 9.66267 79.9437 9.06067 80.9051 8.65C81.8664 8.23933 82.8091 8.034 83.7331 8.034C86.3931 8.034 87.7231 9.28933 87.7231 11.8V21.978L89.7951 22.384V23H82.8231ZM97.5644 23.294C96.1271 23.294 94.8531 22.9627 93.7424 22.3C92.6317 21.628 91.7591 20.718 91.1244 19.57C90.4991 18.4127 90.1864 17.1107 90.1864 15.664C90.1864 14.208 90.4991 12.906 91.1244 11.758C91.7591 10.61 92.6317 9.70467 93.7424 9.042C94.8531 8.37 96.1271 8.034 97.5644 8.034C99.0017 8.034 100.271 8.37 101.372 9.042C102.483 9.70467 103.356 10.61 103.99 11.758C104.625 12.906 104.942 14.208 104.942 15.664C104.942 17.1107 104.625 18.4127 103.99 19.57C103.356 20.718 102.483 21.628 101.372 22.3C100.271 22.9627 99.0017 23.294 97.5644 23.294ZM97.5364 22.006C98.2177 22.006 98.8197 21.8567 99.3424 21.558C99.8651 21.25 100.304 20.816 100.658 20.256C101.022 19.6867 101.298 19.0147 101.484 18.24C101.671 17.456 101.764 16.588 101.764 15.636C101.764 14.6933 101.671 13.8347 101.484 13.06C101.307 12.2853 101.041 11.618 100.686 11.058C100.332 10.498 99.8931 10.0687 99.3704 9.77C98.8477 9.462 98.2457 9.308 97.5644 9.308C96.8831 9.308 96.2811 9.462 95.7584 9.77C95.2357 10.0687 94.7971 10.498 94.4424 11.058C94.0877 11.618 93.8171 12.29 93.6304 13.074C93.4531 13.8487 93.3644 14.712 93.3644 15.664C93.3644 16.616 93.4531 17.4793 93.6304 18.254C93.8171 19.0287 94.0877 19.696 94.4424 20.256C94.7971 20.816 95.2311 21.25 95.7444 21.558C96.2671 21.8567 96.8644 22.006 97.5364 22.006ZM118.914 23.294L114.546 10.12C114.425 9.68133 114.229 9.38733 113.958 9.238C113.697 9.07933 113.3 8.97667 112.768 8.93V8.314H119.488V8.93C118.527 8.99533 117.943 9.112 117.738 9.28C117.533 9.448 117.519 9.826 117.696 10.414L120.426 19.388H120.538L123.45 11.016C123.534 10.8013 123.595 10.6053 123.632 10.428C123.679 10.2507 123.702 10.092 123.702 9.952C123.702 9.66267 123.562 9.448 123.282 9.308C123.002 9.15867 122.484 9.03267 121.728 8.93V8.314H127.482V8.93C126.782 9.042 126.255 9.17733 125.9 9.336C125.545 9.49467 125.279 9.70933 125.102 9.98C124.934 10.2413 124.766 10.6007 124.598 11.058L120.286 23.294H118.914ZM110.388 23.294L105.768 10.12C105.619 9.68133 105.418 9.38733 105.166 9.238C104.914 9.07933 104.438 8.97667 103.738 8.93V8.314H110.948V8.93C110.304 8.96733 109.833 9.028 109.534 9.112C109.245 9.18667 109.081 9.322 109.044 9.518C109.016 9.714 109.058 10.0127 109.17 10.414L111.9 19.388H111.998L115.092 10.806L116.24 10.862L111.718 23.294H110.388ZM137.995 23.294C136.894 23.294 135.905 22.972 135.027 22.328C134.15 21.684 133.455 20.8067 132.941 19.696C132.437 18.576 132.185 17.3113 132.185 15.902C132.185 14.3527 132.493 12.99 133.109 11.814C133.725 10.6287 134.584 9.70467 135.685 9.042C136.787 8.37 138.061 8.034 139.507 8.034C140.534 8.034 141.542 8.188 142.531 8.496V2.546L140.459 1.748V1.356L145.037 -0.00200176H145.359V20.774L147.277 21.208V21.544L142.951 23.294H142.727V20.984L142.601 20.942C142.023 21.7167 141.337 22.3047 140.543 22.706C139.759 23.098 138.91 23.294 137.995 23.294ZM139.227 21.446C139.918 21.446 140.557 21.3013 141.145 21.012C141.743 20.7227 142.205 20.3307 142.531 19.836V12.052C142.531 11.0533 142.27 10.288 141.747 9.756C141.234 9.224 140.492 8.958 139.521 8.958C138.271 8.958 137.258 9.55067 136.483 10.736C135.718 11.9213 135.335 13.494 135.335 15.454C135.335 17.302 135.681 18.7627 136.371 19.836C137.062 20.9093 138.014 21.446 139.227 21.446ZM155.156 23.294C153.718 23.294 152.444 22.9627 151.334 22.3C150.223 21.628 149.35 20.718 148.716 19.57C148.09 18.4127 147.778 17.1107 147.778 15.664C147.778 14.208 148.09 12.906 148.716 11.758C149.35 10.61 150.223 9.70467 151.334 9.042C152.444 8.37 153.718 8.034 155.156 8.034C156.593 8.034 157.862 8.37 158.964 9.042C160.074 9.70467 160.947 10.61 161.582 11.758C162.216 12.906 162.534 14.208 162.534 15.664C162.534 17.1107 162.216 18.4127 161.582 19.57C160.947 20.718 160.074 21.628 158.964 22.3C157.862 22.9627 156.593 23.294 155.156 23.294ZM155.128 22.006C155.809 22.006 156.411 21.8567 156.934 21.558C157.456 21.25 157.895 20.816 158.25 20.256C158.614 19.6867 158.889 19.0147 159.076 18.24C159.262 17.456 159.356 16.588 159.356 15.636C159.356 14.6933 159.262 13.8347 159.076 13.06C158.898 12.2853 158.632 11.618 158.278 11.058C157.923 10.498 157.484 10.0687 156.962 9.77C156.439 9.462 155.837 9.308 155.156 9.308C154.474 9.308 153.872 9.462 153.35 9.77C152.827 10.0687 152.388 10.498 152.034 11.058C151.679 11.618 151.408 12.29 151.222 13.074C151.044 13.8487 150.956 14.712 150.956 15.664C150.956 16.616 151.044 17.4793 151.222 18.254C151.408 19.0287 151.679 19.696 152.034 20.256C152.388 20.816 152.822 21.25 153.336 21.558C153.858 21.8567 154.456 22.006 155.128 22.006ZM182.516 23.294L178.148 10.12C178.026 9.68133 177.83 9.38733 177.56 9.238C177.298 9.07933 176.902 8.97667 176.37 8.93V8.314H183.09V8.93C182.128 8.99533 181.545 9.112 181.34 9.28C181.134 9.448 181.12 9.826 181.298 10.414L184.028 19.388H184.14L187.052 11.016C187.136 10.8013 187.196 10.6053 187.234 10.428C187.28 10.2507 187.304 10.092 187.304 9.952C187.304 9.66267 187.164 9.448 186.884 9.308C186.604 9.15867 186.086 9.03267 185.33 8.93V8.314H191.084V8.93C190.384 9.042 189.856 9.17733 189.502 9.336C189.147 9.49467 188.881 9.70933 188.704 9.98C188.536 10.2413 188.368 10.6007 188.2 11.058L183.888 23.294H182.516ZM173.99 23.294L169.37 10.12C169.22 9.68133 169.02 9.38733 168.768 9.238C168.516 9.07933 168.04 8.97667 167.34 8.93V8.314H174.55V8.93C173.906 8.96733 173.434 9.028 173.136 9.112C172.846 9.18667 172.683 9.322 172.646 9.518C172.618 9.714 172.66 10.0127 172.772 10.414L175.502 19.388H175.6L178.694 10.806L179.842 10.862L175.32 23.294H173.99ZM196.635 23.294C195.281 23.294 194.091 22.986 193.065 22.37C192.047 21.7447 191.254 20.8767 190.685 19.766C190.125 18.646 189.845 17.3533 189.845 15.888C189.845 14.3293 190.157 12.962 190.783 11.786C191.417 10.61 192.299 9.69067 193.429 9.028C194.567 8.36533 195.883 8.034 197.377 8.034C199.225 8.034 200.639 8.57067 201.619 9.644C202.608 10.7173 203.121 12.29 203.159 14.362L202.963 14.53H192.113V13.718L199.953 13.438C200.018 13.1953 200.051 12.8267 200.051 12.332C200.051 10.092 199.066 8.972 197.097 8.972C195.743 8.972 194.698 9.504 193.961 10.568C193.233 11.6227 192.869 13.1207 192.869 15.062C192.869 19.122 194.446 21.152 197.601 21.152C199.654 21.152 201.227 20.4053 202.319 18.912L202.837 19.234C202.351 20.522 201.563 21.5207 200.471 22.23C199.388 22.9393 198.109 23.294 196.635 23.294ZM216.002 23.294C214.9 23.294 213.911 22.972 213.034 22.328C212.156 21.684 211.461 20.8067 210.948 19.696C210.444 18.576 210.192 17.3113 210.192 15.902C210.192 14.3527 210.5 12.99 211.116 11.814C211.732 10.6287 212.59 9.70467 213.692 9.042C214.793 8.37 216.067 8.034 217.514 8.034C218.54 8.034 219.548 8.188 220.538 8.496V2.546L218.466 1.748V1.356L223.044 -0.00200176H223.366V20.774L225.284 21.208V21.544L220.958 23.294H220.734V20.984L220.608 20.942C220.029 21.7167 219.343 22.3047 218.55 22.706C217.766 23.098 216.916 23.294 216.002 23.294ZM217.234 21.446C217.924 21.446 218.564 21.3013 219.152 21.012C219.749 20.7227 220.211 20.3307 220.538 19.836V12.052C220.538 11.0533 220.276 10.288 219.754 9.756C219.24 9.224 218.498 8.958 217.528 8.958C216.277 8.958 215.264 9.55067 214.49 10.736C213.724 11.9213 213.342 13.494 213.342 15.454C213.342 17.302 213.687 18.7627 214.378 19.836C215.068 20.9093 216.02 21.446 217.234 21.446ZM233.162 23.294C231.725 23.294 230.451 22.9627 229.34 22.3C228.229 21.628 227.357 20.718 226.722 19.57C226.097 18.4127 225.784 17.1107 225.784 15.664C225.784 14.208 226.097 12.906 226.722 11.758C227.357 10.61 228.229 9.70467 229.34 9.042C230.451 8.37 231.725 8.034 233.162 8.034C234.599 8.034 235.869 8.37 236.97 9.042C238.081 9.70467 238.953 10.61 239.588 11.758C240.223 12.906 240.54 14.208 240.54 15.664C240.54 17.1107 240.223 18.4127 239.588 19.57C238.953 20.718 238.081 21.628 236.97 22.3C235.869 22.9627 234.599 23.294 233.162 23.294ZM233.134 22.006C233.815 22.006 234.417 21.8567 234.94 21.558C235.463 21.25 235.901 20.816 236.256 20.256C236.62 19.6867 236.895 19.0147 237.082 18.24C237.269 17.456 237.362 16.588 237.362 15.636C237.362 14.6933 237.269 13.8347 237.082 13.06C236.905 12.2853 236.639 11.618 236.284 11.058C235.929 10.498 235.491 10.0687 234.968 9.77C234.445 9.462 233.843 9.308 233.162 9.308C232.481 9.308 231.879 9.462 231.356 9.77C230.833 10.0687 230.395 10.498 230.04 11.058C229.685 11.618 229.415 12.29 229.228 13.074C229.051 13.8487 228.962 14.712 228.962 15.664C228.962 16.616 229.051 17.4793 229.228 18.254C229.415 19.0287 229.685 19.696 230.04 20.256C230.395 20.816 230.829 21.25 231.342 21.558C231.865 21.8567 232.462 22.006 233.134 22.006ZM247.257 23V22.384L249.385 21.95V10.54L247.299 9.798V9.364L251.947 8.034H252.255V21.95L254.355 22.384V23H247.257ZM250.799 5.094C250.229 5.094 249.777 4.912 249.441 4.548C249.105 4.184 248.937 3.75933 248.937 3.274C248.937 2.742 249.105 2.294 249.441 1.93C249.777 1.566 250.229 1.384 250.799 1.384C251.377 1.384 251.835 1.566 252.171 1.93C252.516 2.294 252.689 2.742 252.689 3.274C252.689 3.75933 252.516 4.184 252.171 4.548C251.835 4.912 251.377 5.094 250.799 5.094ZM259.386 23.294C258.35 23.294 257.561 23 257.02 22.412C256.479 21.824 256.208 20.9793 256.208 19.878V9.35H254.388L254.304 8.846L258.504 4.674L259.05 4.73V8.314H263.054L262.816 9.35H259.05V19.598C259.05 21.1287 259.601 21.894 260.702 21.894C261.075 21.894 261.444 21.796 261.808 21.6C262.181 21.404 262.499 21.1333 262.76 20.788L263.25 21.222C262.821 21.8567 262.261 22.3607 261.57 22.734C260.889 23.1073 260.161 23.294 259.386 23.294ZM264.734 16.616V10.68H265.882C267.656 10.68 268.99 10.4653 269.886 10.036C270.782 9.60667 271.23 8.96733 271.23 8.118C271.23 7.67 271.104 7.25 270.852 6.858C270.6 6.466 270.204 6.09267 269.662 5.738C269.13 5.38333 268.435 5.04267 267.576 4.716C266.634 4.352 265.92 4.05333 265.434 3.82C264.958 3.58667 264.636 3.36733 264.468 3.162C264.3 2.95667 264.216 2.71867 264.216 2.448C264.216 1.73867 264.73 1.384 265.756 1.384C266.932 1.384 268.01 1.69667 268.99 2.322C269.98 2.94733 270.768 3.78733 271.356 4.842C271.954 5.89667 272.252 7.06333 272.252 8.342C272.252 9.90067 271.772 11.1093 270.81 11.968C269.858 12.8173 268.491 13.27 266.708 13.326L265.868 13.34V16.616H264.734ZM265.252 23.294C264.702 23.294 264.254 23.1167 263.908 22.762C263.572 22.398 263.404 21.9453 263.404 21.404C263.404 20.872 263.572 20.4333 263.908 20.088C264.254 19.7333 264.706 19.556 265.266 19.556C265.826 19.556 266.284 19.7333 266.638 20.088C266.993 20.4333 267.17 20.872 267.17 21.404C267.17 21.936 266.993 22.384 266.638 22.748C266.293 23.112 265.831 23.294 265.252 23.294ZM279.43 23V22.328L281.81 21.768V2.882L279.43 2.35V1.678H295.054L295.544 7.768H294.802C294.587 6.984 294.316 6.16267 293.99 5.304C293.672 4.436 293.28 3.61 292.814 2.826H284.96V21.768L288.11 22.328V23H279.43ZM290.784 15.636C290.597 14.4973 290.252 13.396 289.748 12.332H284.582V11.17H289.748C290.009 10.6193 290.219 10.0687 290.378 9.518C290.546 8.958 290.681 8.40733 290.784 7.866H291.498V15.636H290.784ZM302.331 23.294C300.893 23.294 299.619 22.9627 298.509 22.3C297.398 21.628 296.525 20.718 295.891 19.57C295.265 18.4127 294.953 17.1107 294.953 15.664C294.953 14.208 295.265 12.906 295.891 11.758C296.525 10.61 297.398 9.70467 298.509 9.042C299.619 8.37 300.893 8.034 302.331 8.034C303.768 8.034 305.037 8.37 306.139 9.042C307.249 9.70467 308.122 10.61 308.757 11.758C309.391 12.906 309.709 14.208 309.709 15.664C309.709 17.1107 309.391 18.4127 308.757 19.57C308.122 20.718 307.249 21.628 306.139 22.3C305.037 22.9627 303.768 23.294 302.331 23.294ZM302.303 22.006C302.984 22.006 303.586 21.8567 304.109 21.558C304.631 21.25 305.07 20.816 305.425 20.256C305.789 19.6867 306.064 19.0147 306.251 18.24C306.437 17.456 306.531 16.588 306.531 15.636C306.531 14.6933 306.437 13.8347 306.251 13.06C306.073 12.2853 305.807 11.618 305.453 11.058C305.098 10.498 304.659 10.0687 304.137 9.77C303.614 9.462 303.012 9.308 302.331 9.308C301.649 9.308 301.047 9.462 300.525 9.77C300.002 10.0687 299.563 10.498 299.209 11.058C298.854 11.618 298.583 12.29 298.397 13.074C298.219 13.8487 298.131 14.712 298.131 15.664C298.131 16.616 298.219 17.4793 298.397 18.254C298.583 19.0287 298.854 19.696 299.209 20.256C299.563 20.816 299.997 21.25 300.511 21.558C301.033 21.8567 301.631 22.006 302.303 22.006ZM310.389 23V22.384L312.489 21.95V10.54L310.445 9.77V9.364L314.925 8.02H315.233V11.044L315.345 11.184V21.95L318.229 22.384V23H310.389ZM315.135 12.332L315.079 11.184C315.769 10.1667 316.455 9.38267 317.137 8.832C317.827 8.28133 318.471 8.006 319.069 8.006C319.582 8.006 320.016 8.18333 320.371 8.538C320.725 8.88333 320.903 9.30333 320.903 9.798C320.903 10.2553 320.749 10.6427 320.441 10.96C320.133 11.268 319.75 11.422 319.293 11.422C318.826 11.422 318.462 11.2493 318.201 10.904C318.014 10.6893 317.855 10.5447 317.725 10.47C317.594 10.386 317.445 10.344 317.277 10.344C317.006 10.344 316.665 10.526 316.255 10.89C315.853 11.2447 315.48 11.7253 315.135 12.332ZM330.1 23.294C329.101 23.294 328.289 22.9813 327.664 22.356C327.048 21.7307 326.74 20.9187 326.74 19.92C326.74 19.0987 326.992 18.3893 327.496 17.792C328 17.1947 328.812 16.672 329.932 16.224C331.061 15.7667 332.55 15.3513 334.398 14.978V12.36C334.398 11.1747 334.234 10.344 333.908 9.868C333.59 9.392 333.04 9.154 332.256 9.154C331.481 9.154 330.865 9.34067 330.408 9.714C329.95 10.0873 329.722 10.5913 329.722 11.226C329.722 11.4033 329.731 11.5807 329.75 11.758C329.778 11.926 329.792 12.0893 329.792 12.248C329.792 12.724 329.647 13.116 329.358 13.424C329.078 13.732 328.718 13.886 328.28 13.886C327.878 13.886 327.552 13.7553 327.3 13.494C327.057 13.2327 326.936 12.892 326.936 12.472C326.936 11.8653 327.197 11.2447 327.72 10.61C328.252 9.966 328.952 9.41533 329.82 8.958C330.977 8.342 332.232 8.034 333.586 8.034C334.398 8.034 335.084 8.16 335.644 8.412C336.213 8.664 336.624 9.02333 336.876 9.49C337.025 9.80733 337.123 10.2087 337.17 10.694C337.226 11.1793 337.254 11.9913 337.254 13.13V19.388C337.254 20.2933 337.324 20.9093 337.464 21.236C337.613 21.5627 337.888 21.726 338.29 21.726C338.747 21.726 339.19 21.4647 339.62 20.942L340.124 21.418C339.666 22.0807 339.2 22.5613 338.724 22.86C338.257 23.1493 337.711 23.294 337.086 23.294C336.33 23.294 335.742 23.0887 335.322 22.678C334.902 22.2673 334.622 21.642 334.482 20.802H334.398C333.866 21.5673 333.222 22.174 332.466 22.622C331.71 23.07 330.921 23.294 330.1 23.294ZM331.5 21.516C332.078 21.516 332.62 21.3667 333.124 21.068C333.628 20.76 334.052 20.3353 334.398 19.794V15.846C333.147 16.0887 332.162 16.3547 331.444 16.644C330.734 16.9333 330.23 17.288 329.932 17.708C329.642 18.1187 329.498 18.6367 329.498 19.262C329.498 19.9807 329.666 20.536 330.002 20.928C330.347 21.32 330.846 21.516 331.5 21.516ZM345.142 23V22.384L347.27 21.95V2.49L345.17 1.748V1.314L349.832 -0.00200176H350.126V21.95L352.226 22.384V23H345.142ZM360.021 23.294C358.583 23.294 357.309 22.9627 356.199 22.3C355.088 21.628 354.215 20.718 353.581 19.57C352.955 18.4127 352.643 17.1107 352.643 15.664C352.643 14.208 352.955 12.906 353.581 11.758C354.215 10.61 355.088 9.70467 356.199 9.042C357.309 8.37 358.583 8.034 360.021 8.034C361.458 8.034 362.727 8.37 363.829 9.042C364.939 9.70467 365.812 10.61 366.447 11.758C367.081 12.906 367.399 14.208 367.399 15.664C367.399 17.1107 367.081 18.4127 366.447 19.57C365.812 20.718 364.939 21.628 363.829 22.3C362.727 22.9627 361.458 23.294 360.021 23.294ZM359.993 22.006C360.674 22.006 361.276 21.8567 361.799 21.558C362.321 21.25 362.76 20.816 363.115 20.256C363.479 19.6867 363.754 19.0147 363.941 18.24C364.127 17.456 364.221 16.588 364.221 15.636C364.221 14.6933 364.127 13.8347 363.941 13.06C363.763 12.2853 363.497 11.618 363.143 11.058C362.788 10.498 362.349 10.0687 361.827 9.77C361.304 9.462 360.702 9.308 360.021 9.308C359.339 9.308 358.737 9.462 358.215 9.77C357.692 10.0687 357.253 10.498 356.899 11.058C356.544 11.618 356.273 12.29 356.087 13.074C355.909 13.8487 355.821 14.712 355.821 15.664C355.821 16.616 355.909 17.4793 356.087 18.254C356.273 19.0287 356.544 19.696 356.899 20.256C357.253 20.816 357.687 21.25 358.201 21.558C358.723 21.8567 359.321 22.006 359.993 22.006ZM377.179 23V22.384L379.223 21.978V12.99C379.223 11.8793 378.999 11.0533 378.551 10.512C378.103 9.96133 377.379 9.686 376.381 9.686C374.915 9.686 373.697 10.3533 372.727 11.688V10.526C373.511 9.742 374.369 9.13067 375.303 8.692C376.236 8.25333 377.165 8.034 378.089 8.034C380.749 8.034 382.079 9.28933 382.079 11.8V21.978L384.151 22.384V23H377.179ZM368.065 23V22.384L370.165 21.95V10.568L368.093 9.798V9.392L372.573 8.034H372.881V10.512L373.021 10.652V21.95L375.079 22.384V23H368.065ZM393.614 9.07C393.773 8.61267 393.983 8.146 394.244 7.67C394.505 7.18467 394.832 6.774 395.224 6.438C395.616 6.102 396.078 5.934 396.61 5.934C397.049 5.934 397.431 6.06 397.758 6.312C398.085 6.564 398.248 6.90933 398.248 7.348C398.248 7.72133 398.122 8.04333 397.87 8.314C397.618 8.57533 397.305 8.706 396.932 8.706C396.661 8.706 396.461 8.64533 396.33 8.524C396.199 8.40267 396.078 8.28133 395.966 8.16C395.863 8.03867 395.695 7.978 395.462 7.978C395.21 7.978 394.981 8.14133 394.776 8.468C394.571 8.78533 394.426 9.14933 394.342 9.56L393.614 9.07ZM390.604 17.386C391.313 17.386 391.864 17.1573 392.256 16.7C392.657 16.2427 392.937 15.678 393.096 15.006C393.255 14.3247 393.334 13.6667 393.334 13.032C393.334 12.6307 393.297 12.1967 393.222 11.73C393.157 11.254 393.031 10.806 392.844 10.386C392.667 9.95667 392.405 9.60667 392.06 9.336C391.724 9.056 391.29 8.916 390.758 8.916C390.198 8.916 389.741 9.06533 389.386 9.364C389.031 9.65333 388.756 10.0313 388.56 10.498C388.364 10.9553 388.229 11.436 388.154 11.94C388.079 12.444 388.042 12.906 388.042 13.326C388.042 13.858 388.107 14.4413 388.238 15.076C388.369 15.7013 388.616 16.2427 388.98 16.7C389.353 17.1573 389.895 17.386 390.604 17.386ZM390.618 18.31C389.629 18.31 388.873 18.4267 388.35 18.66C387.827 18.884 387.566 19.234 387.566 19.71C387.566 20.046 387.799 20.326 388.266 20.55C388.742 20.7647 389.661 20.9747 391.024 21.18L393.026 21.53C394.65 21.782 395.845 22.2113 396.61 22.818C397.385 23.4153 397.772 24.2273 397.772 25.254C397.772 26.1033 397.534 26.8407 397.058 27.466C396.582 28.0913 395.943 28.6047 395.14 29.006C394.347 29.4167 393.46 29.72 392.48 29.916C391.5 30.112 390.506 30.21 389.498 30.21C388.761 30.21 388.037 30.14 387.328 30C386.619 29.8693 385.975 29.6593 385.396 29.37C384.827 29.0807 384.369 28.7073 384.024 28.25C383.679 27.7927 383.506 27.2373 383.506 26.584C383.506 25.8187 383.791 25.128 384.36 24.512C384.929 23.9053 385.909 23.322 387.3 22.762L388.154 23.112C387.445 23.3827 386.889 23.8027 386.488 24.372C386.087 24.9507 385.886 25.5713 385.886 26.234C385.886 26.9153 386.077 27.4753 386.46 27.914C386.843 28.362 387.351 28.6933 387.986 28.908C388.63 29.132 389.325 29.244 390.072 29.244C390.977 29.244 391.841 29.1413 392.662 28.936C393.493 28.7307 394.169 28.4133 394.692 27.984C395.224 27.5547 395.49 27.004 395.49 26.332C395.49 25.9867 395.378 25.674 395.154 25.394C394.93 25.114 394.496 24.848 393.852 24.596C393.217 24.3533 392.279 24.1153 391.038 23.882L388.728 23.448C387.505 23.2147 386.586 22.8507 385.97 22.356C385.363 21.8613 385.06 21.2687 385.06 20.578C385.06 20.2607 385.158 19.92 385.354 19.556C385.559 19.192 385.951 18.8513 386.53 18.534C387.109 18.2073 387.963 17.9647 389.092 17.806L390.618 18.31ZM390.618 18.31C389.526 18.31 388.56 18.1 387.72 17.68C386.88 17.2507 386.222 16.6533 385.746 15.888C385.27 15.1133 385.032 14.2127 385.032 13.186C385.032 12.1967 385.275 11.3147 385.76 10.54C386.255 9.76533 386.927 9.154 387.776 8.706C388.625 8.258 389.587 8.034 390.66 8.034C391.724 8.034 392.685 8.25333 393.544 8.692C394.403 9.12133 395.084 9.71867 395.588 10.484C396.092 11.2493 396.344 12.122 396.344 13.102C396.344 14.026 396.106 14.8847 395.63 15.678C395.154 16.462 394.487 17.0967 393.628 17.582C392.769 18.0673 391.766 18.31 390.618 18.31ZM403.384 23V22.384L405.512 21.95V2.49L403.412 1.748V1.314L408.074 -0.00200176H408.368V21.95L410.468 22.384V23H403.384ZM418.263 23.294C416.826 23.294 415.552 22.9627 414.441 22.3C413.33 21.628 412.458 20.718 411.823 19.57C411.198 18.4127 410.885 17.1107 410.885 15.664C410.885 14.208 411.198 12.906 411.823 11.758C412.458 10.61 413.33 9.70467 414.441 9.042C415.552 8.37 416.826 8.034 418.263 8.034C419.7 8.034 420.97 8.37 422.071 9.042C423.182 9.70467 424.054 10.61 424.689 11.758C425.324 12.906 425.641 14.208 425.641 15.664C425.641 17.1107 425.324 18.4127 424.689 19.57C424.054 20.718 423.182 21.628 422.071 22.3C420.97 22.9627 419.7 23.294 418.263 23.294ZM418.235 22.006C418.916 22.006 419.518 21.8567 420.041 21.558C420.564 21.25 421.002 20.816 421.357 20.256C421.721 19.6867 421.996 19.0147 422.183 18.24C422.37 17.456 422.463 16.588 422.463 15.636C422.463 14.6933 422.37 13.8347 422.183 13.06C422.006 12.2853 421.74 11.618 421.385 11.058C421.03 10.498 420.592 10.0687 420.069 9.77C419.546 9.462 418.944 9.308 418.263 9.308C417.582 9.308 416.98 9.462 416.457 9.77C415.934 10.0687 415.496 10.498 415.141 11.058C414.786 11.618 414.516 12.29 414.329 13.074C414.152 13.8487 414.063 14.712 414.063 15.664C414.063 16.616 414.152 17.4793 414.329 18.254C414.516 19.0287 414.786 19.696 415.141 20.256C415.496 20.816 415.93 21.25 416.443 21.558C416.966 21.8567 417.563 22.006 418.235 22.006ZM435.421 23V22.384L437.465 21.978V12.99C437.465 11.8793 437.241 11.0533 436.793 10.512C436.345 9.96133 435.621 9.686 434.623 9.686C433.157 9.686 431.939 10.3533 430.969 11.688V10.526C431.753 9.742 432.611 9.13067 433.545 8.692C434.478 8.25333 435.407 8.034 436.331 8.034C438.991 8.034 440.321 9.28933 440.321 11.8V21.978L442.393 22.384V23H435.421ZM426.307 23V22.384L428.407 21.95V10.568L426.335 9.798V9.392L430.815 8.034H431.123V10.512L431.263 10.652V21.95L433.321 22.384V23H426.307ZM451.856 9.07C452.015 8.61267 452.225 8.146 452.486 7.67C452.747 7.18467 453.074 6.774 453.466 6.438C453.858 6.102 454.32 5.934 454.852 5.934C455.291 5.934 455.673 6.06 456 6.312C456.327 6.564 456.49 6.90933 456.49 7.348C456.49 7.72133 456.364 8.04333 456.112 8.314C455.86 8.57533 455.547 8.706 455.174 8.706C454.903 8.706 454.703 8.64533 454.572 8.524C454.441 8.40267 454.32 8.28133 454.208 8.16C454.105 8.03867 453.937 7.978 453.704 7.978C453.452 7.978 453.223 8.14133 453.018 8.468C452.813 8.78533 452.668 9.14933 452.584 9.56L451.856 9.07ZM448.846 17.386C449.555 17.386 450.106 17.1573 450.498 16.7C450.899 16.2427 451.179 15.678 451.338 15.006C451.497 14.3247 451.576 13.6667 451.576 13.032C451.576 12.6307 451.539 12.1967 451.464 11.73C451.399 11.254 451.273 10.806 451.086 10.386C450.909 9.95667 450.647 9.60667 450.302 9.336C449.966 9.056 449.532 8.916 449 8.916C448.44 8.916 447.983 9.06533 447.628 9.364C447.273 9.65333 446.998 10.0313 446.802 10.498C446.606 10.9553 446.471 11.436 446.396 11.94C446.321 12.444 446.284 12.906 446.284 13.326C446.284 13.858 446.349 14.4413 446.48 15.076C446.611 15.7013 446.858 16.2427 447.222 16.7C447.595 17.1573 448.137 17.386 448.846 17.386ZM448.86 18.31C447.871 18.31 447.115 18.4267 446.592 18.66C446.069 18.884 445.808 19.234 445.808 19.71C445.808 20.046 446.041 20.326 446.508 20.55C446.984 20.7647 447.903 20.9747 449.266 21.18L451.268 21.53C452.892 21.782 454.087 22.2113 454.852 22.818C455.627 23.4153 456.014 24.2273 456.014 25.254C456.014 26.1033 455.776 26.8407 455.3 27.466C454.824 28.0913 454.185 28.6047 453.382 29.006C452.589 29.4167 451.702 29.72 450.722 29.916C449.742 30.112 448.748 30.21 447.74 30.21C447.003 30.21 446.279 30.14 445.57 30C444.861 29.8693 444.217 29.6593 443.638 29.37C443.069 29.0807 442.611 28.7073 442.266 28.25C441.921 27.7927 441.748 27.2373 441.748 26.584C441.748 25.8187 442.033 25.128 442.602 24.512C443.171 23.9053 444.151 23.322 445.542 22.762L446.396 23.112C445.687 23.3827 445.131 23.8027 444.73 24.372C444.329 24.9507 444.128 25.5713 444.128 26.234C444.128 26.9153 444.319 27.4753 444.702 27.914C445.085 28.362 445.593 28.6933 446.228 28.908C446.872 29.132 447.567 29.244 448.314 29.244C449.219 29.244 450.083 29.1413 450.904 28.936C451.735 28.7307 452.411 28.4133 452.934 27.984C453.466 27.5547 453.732 27.004 453.732 26.332C453.732 25.9867 453.62 25.674 453.396 25.394C453.172 25.114 452.738 24.848 452.094 24.596C451.459 24.3533 450.521 24.1153 449.28 23.882L446.97 23.448C445.747 23.2147 444.828 22.8507 444.212 22.356C443.605 21.8613 443.302 21.2687 443.302 20.578C443.302 20.2607 443.4 19.92 443.596 19.556C443.801 19.192 444.193 18.8513 444.772 18.534C445.351 18.2073 446.205 17.9647 447.334 17.806L448.86 18.31ZM448.86 18.31C447.768 18.31 446.802 18.1 445.962 17.68C445.122 17.2507 444.464 16.6533 443.988 15.888C443.512 15.1133 443.274 14.2127 443.274 13.186C443.274 12.1967 443.517 11.3147 444.002 10.54C444.497 9.76533 445.169 9.154 446.018 8.706C446.867 8.258 447.829 8.034 448.902 8.034C449.966 8.034 450.927 8.25333 451.786 8.692C452.645 9.12133 453.326 9.71867 453.83 10.484C454.334 11.2493 454.586 12.122 454.586 13.102C454.586 14.026 454.348 14.8847 453.872 15.678C453.396 16.462 452.729 17.0967 451.87 17.582C451.011 18.0673 450.008 18.31 448.86 18.31ZM127.759 55.294C126.723 55.294 125.934 55 125.393 54.412C124.851 53.824 124.581 52.9793 124.581 51.878V41.35H122.761L122.677 40.846L126.877 36.674L127.423 36.73V40.314H131.427L131.189 41.35H127.423V51.598C127.423 53.1287 127.973 53.894 129.075 53.894C129.448 53.894 129.817 53.796 130.181 53.6C130.554 53.404 130.871 53.1333 131.133 52.788L131.623 53.222C131.193 53.8567 130.633 54.3607 129.943 54.734C129.261 55.1073 128.533 55.294 127.759 55.294ZM131.259 55V54.384L133.387 53.95V42.54L131.301 41.798V41.364L135.949 40.034H136.257V53.95L138.357 54.384V55H131.259ZM134.801 37.094C134.232 37.094 133.779 36.912 133.443 36.548C133.107 36.184 132.939 35.7593 132.939 35.274C132.939 34.742 133.107 34.294 133.443 33.93C133.779 33.566 134.232 33.384 134.801 33.384C135.38 33.384 135.837 33.566 136.173 33.93C136.518 34.294 136.691 34.742 136.691 35.274C136.691 35.7593 136.518 36.184 136.173 36.548C135.837 36.912 135.38 37.094 134.801 37.094ZM138.404 55V54.384L140.49 53.95V42.568L138.432 41.798V41.392L142.856 40.034H143.22V42.456L143.36 42.596V53.95L145.418 54.384V55H138.404ZM147.252 55V54.384L149.324 53.978V45.424C149.324 44.0987 149.114 43.1467 148.694 42.568C148.284 41.98 147.621 41.686 146.706 41.686C145.997 41.686 145.32 41.8633 144.676 42.218C144.042 42.5633 143.486 43.0627 143.01 43.716V42.54C143.794 41.7467 144.658 41.1307 145.6 40.692C146.552 40.2533 147.486 40.034 148.4 40.034C149.679 40.034 150.626 40.37 151.242 41.042C151.858 41.7047 152.166 42.7407 152.166 44.15V53.978L154.238 54.384V55H147.252ZM156.072 55V54.384L158.13 53.978V45.34C158.13 44.0147 157.93 43.0767 157.528 42.526C157.136 41.966 156.469 41.686 155.526 41.686C154.77 41.686 154.08 41.8633 153.454 42.218C152.838 42.5633 152.297 43.0627 151.83 43.716V42.54C152.549 41.7093 153.394 41.084 154.364 40.664C155.335 40.244 156.315 40.034 157.304 40.034C158.555 40.034 159.47 40.3747 160.048 41.056C160.627 41.7373 160.935 42.8107 160.972 44.276V53.978L163.044 54.384V55H156.072ZM170.259 55.294C168.906 55.294 167.716 54.986 166.689 54.37C165.672 53.7447 164.878 52.8767 164.309 51.766C163.749 50.646 163.469 49.3533 163.469 47.888C163.469 46.3293 163.782 44.962 164.407 43.786C165.042 42.61 165.924 41.6907 167.053 41.028C168.192 40.3653 169.508 40.034 171.001 40.034C172.849 40.034 174.263 40.5707 175.243 41.644C176.232 42.7173 176.746 44.29 176.783 46.362L176.587 46.53H165.737V45.718L173.577 45.438C173.642 45.1953 173.675 44.8267 173.675 44.332C173.675 42.092 172.69 40.972 170.721 40.972C169.368 40.972 168.322 41.504 167.585 42.568C166.857 43.6227 166.493 45.1207 166.493 47.062C166.493 51.122 168.07 53.152 171.225 53.152C173.278 53.152 174.851 52.4053 175.943 50.912L176.461 51.234C175.976 52.522 175.187 53.5207 174.095 54.23C173.012 54.9393 171.734 55.294 170.259 55.294ZM196.647 55.294L192.279 42.12C192.157 41.6813 191.961 41.3873 191.691 41.238C191.429 41.0793 191.033 40.9767 190.501 40.93V40.314H197.221V40.93C196.259 40.9953 195.676 41.112 195.471 41.28C195.265 41.448 195.251 41.826 195.429 42.414L198.159 51.388H198.271L201.183 43.016C201.267 42.8013 201.327 42.6053 201.365 42.428C201.411 42.2507 201.435 42.092 201.435 41.952C201.435 41.6627 201.295 41.448 201.015 41.308C200.735 41.1587 200.217 41.0327 199.461 40.93V40.314H205.215V40.93C204.515 41.042 203.987 41.1773 203.633 41.336C203.278 41.4947 203.012 41.7093 202.835 41.98C202.667 42.2413 202.499 42.6007 202.331 43.058L198.019 55.294H196.647ZM188.121 55.294L183.501 42.12C183.351 41.6813 183.151 41.3873 182.899 41.238C182.647 41.0793 182.171 40.9767 181.471 40.93V40.314H188.681V40.93C188.037 40.9673 187.565 41.028 187.267 41.112C186.977 41.1867 186.814 41.322 186.777 41.518C186.749 41.714 186.791 42.0127 186.903 42.414L189.633 51.388H189.731L192.825 42.806L193.973 42.862L189.451 55.294H188.121ZM210.766 55.294C209.413 55.294 208.223 54.986 207.196 54.37C206.179 53.7447 205.385 52.8767 204.816 51.766C204.256 50.646 203.976 49.3533 203.976 47.888C203.976 46.3293 204.289 44.962 204.914 43.786C205.549 42.61 206.431 41.6907 207.56 41.028C208.699 40.3653 210.015 40.034 211.508 40.034C213.356 40.034 214.77 40.5707 215.75 41.644C216.739 42.7173 217.253 44.29 217.29 46.362L217.094 46.53H206.244V45.718L214.084 45.438C214.149 45.1953 214.182 44.8267 214.182 44.332C214.182 42.092 213.197 40.972 211.228 40.972C209.875 40.972 208.829 41.504 208.092 42.568C207.364 43.6227 207 45.1207 207 47.062C207 51.122 208.577 53.152 211.732 53.152C213.785 53.152 215.358 52.4053 216.45 50.912L216.968 51.234C216.483 52.522 215.694 53.5207 214.602 54.23C213.519 54.9393 212.241 55.294 210.766 55.294ZM228.985 55.294C228.089 55.294 227.286 55.1587 226.577 54.888C225.867 54.6173 225.307 54.2533 224.897 53.796C224.486 53.3293 224.281 52.8067 224.281 52.228C224.281 51.7613 224.411 51.3973 224.673 51.136C224.934 50.8747 225.284 50.744 225.723 50.744C226.161 50.744 226.483 50.8793 226.689 51.15C226.894 51.4207 227.095 51.8733 227.291 52.508C227.459 53.04 227.664 53.4787 227.907 53.824C228.159 54.16 228.597 54.328 229.223 54.328C229.96 54.328 230.553 54.104 231.001 53.656C231.449 53.1987 231.673 52.6153 231.673 51.906C231.673 51.2807 231.505 50.7673 231.169 50.366C230.842 49.9647 230.413 49.6193 229.881 49.33C229.358 49.0313 228.803 48.7467 228.215 48.476C227.627 48.196 227.067 47.8787 226.535 47.524C226.012 47.16 225.583 46.7073 225.247 46.166C224.92 45.6153 224.757 44.92 224.757 44.08C224.757 42.8013 225.181 41.798 226.031 41.07C226.88 40.342 228.047 39.978 229.531 39.978C229.587 39.978 229.652 39.9827 229.727 39.992C229.811 39.992 229.913 40.0013 230.035 40.02V39.908C229.4 39.6653 228.863 39.2127 228.425 38.55C227.986 37.8873 227.767 37.1593 227.767 36.366C227.767 35.4887 228.047 34.7047 228.607 34.014C229.167 33.3233 229.932 32.7773 230.903 32.376C231.873 31.9747 232.979 31.774 234.221 31.774C236.227 31.774 237.772 32.32 238.855 33.412C239.937 34.504 240.479 36.0673 240.479 38.102C240.479 38.4287 240.46 38.7833 240.423 39.166C240.385 39.5393 240.339 39.922 240.283 40.314H244.287L244.035 41.35H240.283V50.996C240.283 51.752 240.329 52.34 240.423 52.76C240.525 53.18 240.689 53.474 240.913 53.642C241.146 53.81 241.449 53.894 241.823 53.894C242.644 53.894 243.367 53.5253 243.993 52.788L244.469 53.222C244.03 53.8753 243.47 54.384 242.789 54.748C242.117 55.112 241.375 55.294 240.563 55.294C239.863 55.294 239.279 55.154 238.813 54.874C238.346 54.594 237.996 54.1647 237.763 53.586C237.539 52.998 237.427 52.2513 237.427 51.346V41.35H235.607L235.523 40.846C237.119 40.426 237.917 39.1753 237.917 37.094C237.917 35.7127 237.576 34.6533 236.895 33.916C236.223 33.1693 235.238 32.796 233.941 32.796C232.643 32.796 231.612 33.1647 230.847 33.902C230.091 34.6393 229.713 35.6427 229.713 36.912C229.713 37.6867 229.867 38.354 230.175 38.914C230.492 39.474 230.977 39.936 231.631 40.3C232.405 40.5333 233.031 40.8787 233.507 41.336C233.983 41.784 234.221 42.302 234.221 42.89C234.221 43.338 234.09 43.6927 233.829 43.954C233.567 44.206 233.231 44.332 232.821 44.332C232.307 44.332 231.939 44.1453 231.715 43.772C231.5 43.3987 231.332 43.002 231.211 42.582C231.033 41.9753 230.819 41.5507 230.567 41.308C230.324 41.0653 229.951 40.944 229.447 40.944C228.765 40.944 228.215 41.14 227.795 41.532C227.375 41.9147 227.165 42.4373 227.165 43.1C227.165 43.6973 227.328 44.1873 227.655 44.57C227.991 44.9433 228.415 45.2653 228.929 45.536C229.451 45.8067 230.007 46.0727 230.595 46.334C231.183 46.586 231.733 46.894 232.247 47.258C232.769 47.6127 233.194 48.0653 233.521 48.616C233.857 49.1667 234.025 49.876 234.025 50.744C234.025 52.1347 233.572 53.2407 232.667 54.062C231.761 54.8833 230.534 55.294 228.985 55.294ZM244.146 55V54.384L246.246 53.95V42.54L244.202 41.77V41.364L248.682 40.02H248.99V43.044L249.102 43.184V53.95L251.986 54.384V55H244.146ZM248.892 44.332L248.836 43.184C249.526 42.1667 250.212 41.3827 250.894 40.832C251.584 40.2813 252.228 40.006 252.826 40.006C253.339 40.006 253.773 40.1833 254.128 40.538C254.482 40.8833 254.66 41.3033 254.66 41.798C254.66 42.2553 254.506 42.6427 254.198 42.96C253.89 43.268 253.507 43.422 253.05 43.422C252.583 43.422 252.219 43.2493 251.958 42.904C251.771 42.6893 251.612 42.5447 251.482 42.47C251.351 42.386 251.202 42.344 251.034 42.344C250.763 42.344 250.422 42.526 250.012 42.89C249.61 43.2447 249.237 43.7253 248.892 44.332ZM260.397 55.294C258.997 55.294 257.975 54.972 257.331 54.328C256.687 53.6747 256.365 52.732 256.365 51.5V41.364L254.293 40.93V40.314H259.221V50.38C259.221 51.6027 259.436 52.4427 259.865 52.9C260.304 53.3573 260.994 53.586 261.937 53.586C262.581 53.586 263.211 53.418 263.827 53.082C264.443 52.746 265.012 52.2187 265.535 51.5V52.62C264.826 53.488 264.028 54.1507 263.141 54.608C262.254 55.0653 261.34 55.294 260.397 55.294ZM265.437 55.294V52.536L265.283 52.48V41.364L263.225 40.93V40.314H268.139V52.872L270.043 53.544V53.922L265.675 55.294H265.437ZM279.793 41.07C279.951 40.6127 280.161 40.146 280.423 39.67C280.684 39.1847 281.011 38.774 281.403 38.438C281.795 38.102 282.257 37.934 282.789 37.934C283.227 37.934 283.61 38.06 283.937 38.312C284.263 38.564 284.427 38.9093 284.427 39.348C284.427 39.7213 284.301 40.0433 284.049 40.314C283.797 40.5753 283.484 40.706 283.111 40.706C282.84 40.706 282.639 40.6453 282.509 40.524C282.378 40.4027 282.257 40.2813 282.145 40.16C282.042 40.0387 281.874 39.978 281.641 39.978C281.389 39.978 281.16 40.1413 280.955 40.468C280.749 40.7853 280.605 41.1493 280.521 41.56L279.793 41.07ZM276.783 49.386C277.492 49.386 278.043 49.1573 278.435 48.7C278.836 48.2427 279.116 47.678 279.275 47.006C279.433 46.3247 279.513 45.6667 279.513 45.032C279.513 44.6307 279.475 44.1967 279.401 43.73C279.335 43.254 279.209 42.806 279.023 42.386C278.845 41.9567 278.584 41.6067 278.239 41.336C277.903 41.056 277.469 40.916 276.937 40.916C276.377 40.916 275.919 41.0653 275.565 41.364C275.21 41.6533 274.935 42.0313 274.739 42.498C274.543 42.9553 274.407 43.436 274.333 43.94C274.258 44.444 274.221 44.906 274.221 45.326C274.221 45.858 274.286 46.4413 274.417 47.076C274.547 47.7013 274.795 48.2427 275.159 48.7C275.532 49.1573 276.073 49.386 276.783 49.386ZM276.797 50.31C275.807 50.31 275.051 50.4267 274.529 50.66C274.006 50.884 273.745 51.234 273.745 51.71C273.745 52.046 273.978 52.326 274.445 52.55C274.921 52.7647 275.84 52.9747 277.203 53.18L279.205 53.53C280.829 53.782 282.023 54.2113 282.789 54.818C283.563 55.4153 283.951 56.2273 283.951 57.254C283.951 58.1033 283.713 58.8407 283.237 59.466C282.761 60.0913 282.121 60.6047 281.319 61.006C280.525 61.4167 279.639 61.72 278.659 61.916C277.679 62.112 276.685 62.21 275.677 62.21C274.939 62.21 274.216 62.14 273.507 62C272.797 61.8693 272.153 61.6593 271.575 61.37C271.005 61.0807 270.548 60.7073 270.203 60.25C269.857 59.7927 269.685 59.2373 269.685 58.584C269.685 57.8187 269.969 57.128 270.539 56.512C271.108 55.9053 272.088 55.322 273.479 54.762L274.333 55.112C273.623 55.3827 273.068 55.8027 272.667 56.372C272.265 56.9507 272.065 57.5713 272.065 58.234C272.065 58.9153 272.256 59.4753 272.639 59.914C273.021 60.362 273.53 60.6933 274.165 60.908C274.809 61.132 275.504 61.244 276.251 61.244C277.156 61.244 278.019 61.1413 278.841 60.936C279.671 60.7307 280.348 60.4133 280.871 59.984C281.403 59.5547 281.669 59.004 281.669 58.332C281.669 57.9867 281.557 57.674 281.333 57.394C281.109 57.114 280.675 56.848 280.031 56.596C279.396 56.3533 278.458 56.1153 277.217 55.882L274.907 55.448C273.684 55.2147 272.765 54.8507 272.149 54.356C271.542 53.8613 271.239 53.2687 271.239 52.578C271.239 52.2607 271.337 51.92 271.533 51.556C271.738 51.192 272.13 50.8513 272.709 50.534C273.287 50.2073 274.141 49.9647 275.271 49.806L276.797 50.31ZM276.797 50.31C275.705 50.31 274.739 50.1 273.899 49.68C273.059 49.2507 272.401 48.6533 271.925 47.888C271.449 47.1133 271.211 46.2127 271.211 45.186C271.211 44.1967 271.453 43.3147 271.939 42.54C272.433 41.7653 273.105 41.154 273.955 40.706C274.804 40.258 275.765 40.034 276.839 40.034C277.903 40.034 278.864 40.2533 279.723 40.692C280.581 41.1213 281.263 41.7187 281.767 42.484C282.271 43.2493 282.523 44.122 282.523 45.102C282.523 46.026 282.285 46.8847 281.809 47.678C281.333 48.462 280.665 49.0967 279.807 49.582C278.948 50.0673 277.945 50.31 276.797 50.31ZM293.049 41.07C293.208 40.6127 293.418 40.146 293.679 39.67C293.94 39.1847 294.267 38.774 294.659 38.438C295.051 38.102 295.513 37.934 296.045 37.934C296.484 37.934 296.866 38.06 297.193 38.312C297.52 38.564 297.683 38.9093 297.683 39.348C297.683 39.7213 297.557 40.0433 297.305 40.314C297.053 40.5753 296.74 40.706 296.367 40.706C296.096 40.706 295.896 40.6453 295.765 40.524C295.634 40.4027 295.513 40.2813 295.401 40.16C295.298 40.0387 295.13 39.978 294.897 39.978C294.645 39.978 294.416 40.1413 294.211 40.468C294.006 40.7853 293.861 41.1493 293.777 41.56L293.049 41.07ZM290.039 49.386C290.748 49.386 291.299 49.1573 291.691 48.7C292.092 48.2427 292.372 47.678 292.531 47.006C292.69 46.3247 292.769 45.6667 292.769 45.032C292.769 44.6307 292.732 44.1967 292.657 43.73C292.592 43.254 292.466 42.806 292.279 42.386C292.102 41.9567 291.84 41.6067 291.495 41.336C291.159 41.056 290.725 40.916 290.193 40.916C289.633 40.916 289.176 41.0653 288.821 41.364C288.466 41.6533 288.191 42.0313 287.995 42.498C287.799 42.9553 287.664 43.436 287.589 43.94C287.514 44.444 287.477 44.906 287.477 45.326C287.477 45.858 287.542 46.4413 287.673 47.076C287.804 47.7013 288.051 48.2427 288.415 48.7C288.788 49.1573 289.33 49.386 290.039 49.386ZM290.053 50.31C289.064 50.31 288.308 50.4267 287.785 50.66C287.262 50.884 287.001 51.234 287.001 51.71C287.001 52.046 287.234 52.326 287.701 52.55C288.177 52.7647 289.096 52.9747 290.459 53.18L292.461 53.53C294.085 53.782 295.28 54.2113 296.045 54.818C296.82 55.4153 297.207 56.2273 297.207 57.254C297.207 58.1033 296.969 58.8407 296.493 59.466C296.017 60.0913 295.378 60.6047 294.575 61.006C293.782 61.4167 292.895 61.72 291.915 61.916C290.935 62.112 289.941 62.21 288.933 62.21C288.196 62.21 287.472 62.14 286.763 62C286.054 61.8693 285.41 61.6593 284.831 61.37C284.262 61.0807 283.804 60.7073 283.459 60.25C283.114 59.7927 282.941 59.2373 282.941 58.584C282.941 57.8187 283.226 57.128 283.795 56.512C284.364 55.9053 285.344 55.322 286.735 54.762L287.589 55.112C286.88 55.3827 286.324 55.8027 285.923 56.372C285.522 56.9507 285.321 57.5713 285.321 58.234C285.321 58.9153 285.512 59.4753 285.895 59.914C286.278 60.362 286.786 60.6933 287.421 60.908C288.065 61.132 288.76 61.244 289.507 61.244C290.412 61.244 291.276 61.1413 292.097 60.936C292.928 60.7307 293.604 60.4133 294.127 59.984C294.659 59.5547 294.925 59.004 294.925 58.332C294.925 57.9867 294.813 57.674 294.589 57.394C294.365 57.114 293.931 56.848 293.287 56.596C292.652 56.3533 291.714 56.1153 290.473 55.882L288.163 55.448C286.94 55.2147 286.021 54.8507 285.405 54.356C284.798 53.8613 284.495 53.2687 284.495 52.578C284.495 52.2607 284.593 51.92 284.789 51.556C284.994 51.192 285.386 50.8513 285.965 50.534C286.544 50.2073 287.398 49.9647 288.527 49.806L290.053 50.31ZM290.053 50.31C288.961 50.31 287.995 50.1 287.155 49.68C286.315 49.2507 285.657 48.6533 285.181 47.888C284.705 47.1133 284.467 46.2127 284.467 45.186C284.467 44.1967 284.71 43.3147 285.195 42.54C285.69 41.7653 286.362 41.154 287.211 40.706C288.06 40.258 289.022 40.034 290.095 40.034C291.159 40.034 292.12 40.2533 292.979 40.692C293.838 41.1213 294.519 41.7187 295.023 42.484C295.527 43.2493 295.779 44.122 295.779 45.102C295.779 46.026 295.541 46.8847 295.065 47.678C294.589 48.462 293.922 49.0967 293.063 49.582C292.204 50.0673 291.201 50.31 290.053 50.31ZM296.755 55V54.384L298.883 53.95V34.49L296.783 33.748V33.314L301.445 31.998H301.739V53.95L303.839 54.384V55H296.755ZM311.101 55.294C309.748 55.294 308.558 54.986 307.531 54.37C306.514 53.7447 305.72 52.8767 305.151 51.766C304.591 50.646 304.311 49.3533 304.311 47.888C304.311 46.3293 304.624 44.962 305.249 43.786C305.884 42.61 306.766 41.6907 307.895 41.028C309.034 40.3653 310.35 40.034 311.843 40.034C313.691 40.034 315.105 40.5707 316.085 41.644C317.074 42.7173 317.588 44.29 317.625 46.362L317.429 46.53H306.579V45.718L314.419 45.438C314.484 45.1953 314.517 44.8267 314.517 44.332C314.517 42.092 313.532 40.972 311.563 40.972C310.21 40.972 309.164 41.504 308.427 42.568C307.699 43.6227 307.335 45.1207 307.335 47.062C307.335 51.122 308.912 53.152 312.067 53.152C314.12 53.152 315.693 52.4053 316.785 50.912L317.303 51.234C316.818 52.522 316.029 53.5207 314.937 54.23C313.854 54.9393 312.576 55.294 311.101 55.294ZM320.959 55.294C320.371 55.294 319.895 55.1027 319.531 54.72C319.176 54.328 318.999 53.8613 318.999 53.32C318.999 52.7413 319.176 52.2653 319.531 51.892C319.895 51.5093 320.366 51.318 320.945 51.318C321.561 51.318 322.051 51.5093 322.415 51.892C322.788 52.2653 322.975 52.7413 322.975 53.32C322.975 53.8613 322.788 54.328 322.415 54.72C322.051 55.1027 321.566 55.294 320.959 55.294ZM327.78 39.894L327.206 39.068C327.729 38.6853 328.149 38.2653 328.466 37.808C328.793 37.3507 328.956 36.9587 328.956 36.632C328.956 36.3053 328.849 36.058 328.634 35.89C328.419 35.722 328.167 35.568 327.878 35.428C327.598 35.288 327.351 35.106 327.136 34.882C326.921 34.658 326.814 34.3313 326.814 33.902C326.814 33.3607 327.001 32.908 327.374 32.544C327.747 32.18 328.205 31.998 328.746 31.998C329.362 31.998 329.852 32.2407 330.216 32.726C330.589 33.202 330.776 33.7853 330.776 34.476C330.776 35.6053 330.519 36.6227 330.006 37.528C329.502 38.424 328.76 39.2127 327.78 39.894ZM322.348 39.894L321.774 39.068C322.306 38.6853 322.731 38.2653 323.048 37.808C323.375 37.3507 323.538 36.9587 323.538 36.632C323.538 36.3053 323.431 36.058 323.216 35.89C323.001 35.722 322.749 35.568 322.46 35.428C322.18 35.288 321.933 35.106 321.718 34.882C321.503 34.658 321.396 34.3313 321.396 33.902C321.396 33.3607 321.578 32.908 321.942 32.544C322.315 32.18 322.773 31.998 323.314 31.998C323.939 31.998 324.434 32.2407 324.798 32.726C325.162 33.202 325.344 33.7853 325.344 34.476C325.344 35.6053 325.087 36.6227 324.574 37.528C324.07 38.424 323.328 39.2127 322.348 39.894ZM154.104 119L154.398 118.258L156.862 117.726L164.688 98.938L162.476 98.406L162.77 97.678H169.56C171.716 97.678 173.386 98.0607 174.572 98.826C175.766 99.582 176.364 100.641 176.364 102.004C176.364 102.947 176.084 103.824 175.524 104.636C174.973 105.448 174.184 106.134 173.158 106.694C172.131 107.254 170.922 107.637 169.532 107.842V107.968C170.801 108.229 171.753 108.752 172.388 109.536C173.032 110.311 173.354 111.286 173.354 112.462C173.354 113.75 172.971 114.889 172.206 115.878C171.44 116.858 170.367 117.623 168.986 118.174C167.604 118.725 165.99 119 164.142 119H154.104ZM162.994 117.81C164.459 117.81 165.7 117.577 166.718 117.11C167.735 116.643 168.51 115.971 169.042 115.094C169.583 114.217 169.854 113.167 169.854 111.944C169.863 110.684 169.541 109.76 168.888 109.172C168.244 108.575 167.259 108.276 165.934 108.276H164.324L161.342 115.472C161.099 116.069 160.978 116.527 160.978 116.844C160.978 117.189 161.132 117.437 161.44 117.586C161.757 117.735 162.275 117.81 162.994 117.81ZM164.828 107.058H167.04C168.888 107.058 170.334 106.619 171.38 105.742C172.425 104.855 172.948 103.651 172.948 102.13C172.948 99.9833 171.772 98.91 169.42 98.91H168.244L164.828 107.058ZM179.227 119.294C177.818 119.294 176.726 118.879 175.951 118.048C175.186 117.208 174.803 116.055 174.803 114.59C174.803 113.582 174.99 112.574 175.363 111.566C175.736 110.558 176.25 109.606 176.903 108.71C177.556 107.805 178.303 107.002 179.143 106.302C179.983 105.602 180.879 105.051 181.831 104.65C182.792 104.239 183.749 104.034 184.701 104.034C186.11 104.034 187.202 104.449 187.977 105.28C188.752 106.111 189.139 107.254 189.139 108.71C189.139 109.727 188.948 110.745 188.565 111.762C188.192 112.77 187.678 113.727 187.025 114.632C186.372 115.528 185.625 116.331 184.785 117.04C183.945 117.74 183.049 118.291 182.097 118.692C181.145 119.093 180.188 119.294 179.227 119.294ZM178.975 118.188C179.488 118.188 180.067 117.936 180.711 117.432C181.355 116.928 181.999 116.265 182.643 115.444C183.287 114.613 183.88 113.699 184.421 112.7C184.962 111.701 185.396 110.707 185.723 109.718C186.05 108.729 186.213 107.823 186.213 107.002C186.213 106.395 186.11 105.929 185.905 105.602C185.709 105.275 185.392 105.112 184.953 105.112C184.421 105.112 183.833 105.359 183.189 105.854C182.545 106.339 181.901 106.993 181.257 107.814C180.622 108.626 180.044 109.522 179.521 110.502C178.998 111.473 178.574 112.462 178.247 113.47C177.93 114.469 177.771 115.388 177.771 116.228C177.771 116.863 177.864 117.348 178.051 117.684C178.247 118.02 178.555 118.188 178.975 118.188ZM193.503 119.294C192.122 119.294 191.067 118.935 190.339 118.216C189.62 117.497 189.261 116.513 189.261 115.262C189.261 114.767 189.322 114.226 189.443 113.638C189.574 113.05 189.774 112.434 190.045 111.79L196.121 97.118L193.923 96.754L193.811 96.292H199.663L195.547 106.4L195.673 106.414C196.364 105.639 197.087 105.051 197.843 104.65C198.599 104.249 199.346 104.048 200.083 104.048C201.138 104.048 201.973 104.417 202.589 105.154C203.214 105.891 203.527 106.96 203.527 108.36C203.527 109.452 203.34 110.525 202.967 111.58C202.603 112.635 202.099 113.629 201.455 114.562C200.811 115.495 200.06 116.317 199.201 117.026C198.352 117.726 197.442 118.281 196.471 118.692C195.5 119.093 194.511 119.294 193.503 119.294ZM193.265 118.188C193.806 118.188 194.394 117.95 195.029 117.474C195.673 116.998 196.312 116.363 196.947 115.57C197.582 114.777 198.165 113.904 198.697 112.952C199.229 111.991 199.654 111.025 199.971 110.054C200.298 109.074 200.461 108.169 200.461 107.338C200.461 106.647 200.349 106.106 200.125 105.714C199.901 105.313 199.584 105.112 199.173 105.112C198.716 105.112 198.16 105.359 197.507 105.854C196.854 106.349 196.191 107.025 195.519 107.884C194.847 108.743 194.245 109.723 193.713 110.824C193.461 111.356 193.195 111.977 192.915 112.686C192.635 113.395 192.397 114.105 192.201 114.814C192.014 115.514 191.921 116.116 191.921 116.62C191.921 117.115 192.047 117.502 192.299 117.782C192.551 118.053 192.873 118.188 193.265 118.188ZM207.88 119.294C206.499 119.294 205.444 118.935 204.716 118.216C203.998 117.497 203.638 116.513 203.638 115.262C203.638 114.767 203.699 114.226 203.82 113.638C203.951 113.05 204.152 112.434 204.422 111.79L210.498 97.118L208.3 96.754L208.188 96.292H214.04L209.924 106.4L210.05 106.414C210.741 105.639 211.464 105.051 212.22 104.65C212.976 104.249 213.723 104.048 214.46 104.048C215.515 104.048 216.35 104.417 216.966 105.154C217.592 105.891 217.904 106.96 217.904 108.36C217.904 109.452 217.718 110.525 217.344 111.58C216.98 112.635 216.476 113.629 215.832 114.562C215.188 115.495 214.437 116.317 213.578 117.026C212.729 117.726 211.819 118.281 210.848 118.692C209.878 119.093 208.888 119.294 207.88 119.294ZM207.642 118.188C208.184 118.188 208.772 117.95 209.406 117.474C210.05 116.998 210.69 116.363 211.324 115.57C211.959 114.777 212.542 113.904 213.074 112.952C213.606 111.991 214.031 111.025 214.348 110.054C214.675 109.074 214.838 108.169 214.838 107.338C214.838 106.647 214.726 106.106 214.502 105.714C214.278 105.313 213.961 105.112 213.55 105.112C213.093 105.112 212.538 105.359 211.884 105.854C211.231 106.349 210.568 107.025 209.896 107.884C209.224 108.743 208.622 109.723 208.09 110.824C207.838 111.356 207.572 111.977 207.292 112.686C207.012 113.395 206.774 114.105 206.578 114.814C206.392 115.514 206.298 116.116 206.298 116.62C206.298 117.115 206.424 117.502 206.676 117.782C206.928 118.053 207.25 118.188 207.642 118.188ZM215.648 126.112C214.91 126.112 214.285 125.953 213.772 125.636C213.258 125.319 213.002 124.899 213.002 124.376C213.002 123.984 213.137 123.657 213.408 123.396C213.678 123.144 214.033 123.018 214.472 123.018C214.836 123.018 215.12 123.097 215.326 123.256C215.522 123.424 215.69 123.611 215.83 123.816C215.97 124.021 216.128 124.203 216.306 124.362C216.474 124.521 216.712 124.6 217.02 124.6C217.309 124.6 217.664 124.497 218.084 124.292C218.513 124.096 218.942 123.769 219.372 123.312C219.596 123.06 219.792 122.813 219.96 122.57C220.128 122.327 220.268 122.019 220.38 121.646C220.492 121.282 220.585 120.792 220.66 120.176C220.734 119.56 220.786 118.767 220.814 117.796C220.851 116.816 220.87 115.589 220.87 114.114C220.87 112.443 220.846 111.053 220.8 109.942C220.753 108.831 220.678 107.959 220.576 107.324C220.482 106.689 220.347 106.237 220.17 105.966C220.002 105.695 219.796 105.56 219.554 105.56C219.05 105.56 218.392 106.078 217.58 107.114L216.964 106.694C217.496 105.873 218.172 105.224 218.994 104.748C219.815 104.272 220.636 104.034 221.458 104.034C221.971 104.034 222.4 104.16 222.746 104.412C223.091 104.655 223.362 105.079 223.558 105.686C223.763 106.293 223.908 107.128 223.992 108.192C224.085 109.256 224.132 110.6 224.132 112.224C224.132 113.027 224.104 113.918 224.048 114.898C224.001 115.878 223.931 116.97 223.838 118.174L223.936 118.244C224.794 117.217 225.536 116.125 226.162 114.968C226.787 113.811 227.268 112.695 227.604 111.622C227.94 110.539 228.108 109.592 228.108 108.78C228.108 108.248 228.084 107.828 228.038 107.52C228 107.203 227.958 106.923 227.912 106.68C227.874 106.428 227.856 106.139 227.856 105.812C227.856 105.289 228.005 104.865 228.304 104.538C228.602 104.202 228.985 104.034 229.452 104.034C229.928 104.034 230.301 104.211 230.572 104.566C230.852 104.921 230.992 105.42 230.992 106.064C230.992 106.839 230.81 107.777 230.446 108.878C230.082 109.97 229.582 111.146 228.948 112.406C228.313 113.666 227.58 114.94 226.75 116.228C225.919 117.516 225.028 118.748 224.076 119.924C223.133 121.109 222.167 122.164 221.178 123.088C220.198 124.021 219.232 124.759 218.28 125.3C217.337 125.841 216.46 126.112 215.648 126.112ZM242.641 119.28C241.493 119.28 240.518 119.107 239.715 118.762C238.912 118.407 238.268 117.885 237.783 117.194L236.229 119H235.347L238.259 111.818H239.155C239.052 112.275 238.973 112.714 238.917 113.134C238.87 113.554 238.847 113.951 238.847 114.324C238.847 115.565 239.16 116.494 239.785 117.11C240.41 117.717 241.362 118.02 242.641 118.02C244.069 118.02 245.203 117.651 246.043 116.914C246.892 116.177 247.317 115.178 247.317 113.918C247.317 113.274 247.21 112.695 246.995 112.182C246.78 111.669 246.477 111.174 246.085 110.698C245.693 110.222 245.231 109.723 244.699 109.2C244.139 108.649 243.64 108.099 243.201 107.548C242.772 106.988 242.431 106.391 242.179 105.756C241.927 105.121 241.801 104.403 241.801 103.6C241.801 102.377 242.095 101.299 242.683 100.366C243.28 99.4327 244.106 98.7047 245.161 98.182C246.225 97.65 247.452 97.384 248.843 97.384C250.7 97.384 252.203 97.958 253.351 99.106L254.793 97.678H255.717L253.225 103.992H252.287C252.371 103.656 252.436 103.287 252.483 102.886C252.539 102.485 252.567 102.135 252.567 101.836C252.567 100.8 252.278 100.007 251.699 99.456C251.12 98.9053 250.276 98.63 249.165 98.63C247.914 98.63 246.939 98.9987 246.239 99.736C245.539 100.464 245.189 101.416 245.189 102.592C245.189 103.283 245.362 103.941 245.707 104.566C246.052 105.182 246.668 105.952 247.555 106.876C248.386 107.763 249.039 108.533 249.515 109.186C249.991 109.839 250.332 110.451 250.537 111.02C250.742 111.58 250.845 112.173 250.845 112.798C250.845 114.03 250.486 115.136 249.767 116.116C249.048 117.096 248.068 117.871 246.827 118.44C245.595 119 244.2 119.28 242.641 119.28ZM255.107 119.294C253.912 119.294 252.97 118.939 252.279 118.23C251.598 117.521 251.257 116.55 251.257 115.318C251.257 114.263 251.467 113.204 251.887 112.14C252.316 111.067 252.9 110.049 253.637 109.088C254.374 108.117 255.214 107.254 256.157 106.498C257.1 105.733 258.094 105.131 259.139 104.692C260.184 104.253 261.22 104.034 262.247 104.034C263.19 104.034 263.927 104.221 264.459 104.594C264.991 104.958 265.257 105.471 265.257 106.134C265.257 106.909 264.87 107.651 264.095 108.36C263.33 109.069 262.238 109.709 260.819 110.278C259.4 110.838 257.716 111.291 255.765 111.636C255.289 112.551 254.93 113.405 254.687 114.198C254.444 114.982 254.323 115.682 254.323 116.298C254.323 117.558 254.855 118.188 255.919 118.188C256.47 118.188 257.062 118.043 257.697 117.754C258.332 117.465 258.976 117.054 259.629 116.522C260.282 115.981 260.912 115.332 261.519 114.576L262.163 115.01C261.006 116.438 259.839 117.511 258.663 118.23C257.487 118.939 256.302 119.294 255.107 119.294ZM256.367 110.67C257.459 110.446 258.486 110.073 259.447 109.55C260.408 109.027 261.188 108.435 261.785 107.772C262.382 107.109 262.681 106.47 262.681 105.854C262.681 105.313 262.401 105.042 261.841 105.042C261.365 105.042 260.842 105.233 260.273 105.616C259.713 105.989 259.153 106.503 258.593 107.156C258.042 107.809 257.534 108.551 257.067 109.382L256.367 110.67ZM266.08 119.294C265.081 119.294 264.297 118.963 263.728 118.3C263.158 117.628 262.874 116.704 262.874 115.528C262.874 114.529 263.074 113.493 263.476 112.42C263.886 111.347 264.437 110.315 265.128 109.326C265.828 108.327 266.616 107.431 267.494 106.638C268.38 105.845 269.3 105.215 270.252 104.748C271.204 104.272 272.128 104.034 273.024 104.034C273.602 104.034 274.088 104.137 274.48 104.342C274.872 104.538 275.236 104.869 275.572 105.336L276.02 104.314H279.254L274.326 116.354C274.139 116.83 274.069 117.171 274.116 117.376C274.162 117.572 274.298 117.67 274.522 117.67C274.708 117.67 274.932 117.591 275.194 117.432C275.464 117.264 275.8 116.993 276.202 116.62C276.603 116.247 277.093 115.747 277.672 115.122L278.302 115.542C277.266 116.811 276.304 117.754 275.418 118.37C274.531 118.986 273.677 119.294 272.856 119.294C271.642 119.294 271.036 118.739 271.036 117.628C271.036 117.227 271.106 116.802 271.246 116.354C271.386 115.906 271.638 115.365 272.002 114.73L271.834 114.646C270.742 116.289 269.743 117.474 268.838 118.202C267.932 118.93 267.013 119.294 266.08 119.294ZM266.808 118.188C267.237 118.188 267.755 117.931 268.362 117.418C268.978 116.905 269.631 116.205 270.322 115.318C271.022 114.422 271.708 113.405 272.38 112.266C273.052 111.127 273.654 109.933 274.186 108.682C274.447 108.075 274.61 107.613 274.676 107.296C274.75 106.969 274.788 106.68 274.788 106.428C274.788 105.989 274.671 105.653 274.438 105.42C274.204 105.187 273.896 105.07 273.514 105.07C272.982 105.07 272.38 105.336 271.708 105.868C271.036 106.4 270.359 107.105 269.678 107.982C268.996 108.85 268.366 109.802 267.788 110.838C267.218 111.874 266.756 112.901 266.402 113.918C266.056 114.935 265.884 115.845 265.884 116.648C265.884 117.171 265.954 117.558 266.094 117.81C266.243 118.062 266.481 118.188 266.808 118.188ZM279.863 119.294C279.331 119.294 278.92 119.145 278.631 118.846C278.351 118.538 278.211 118.123 278.211 117.6C278.211 117.404 278.239 117.175 278.295 116.914C278.36 116.653 278.472 116.293 278.631 115.836C278.79 115.379 279.023 114.767 279.331 114.002C279.639 113.227 280.036 112.243 280.521 111.048C281.016 109.853 281.627 108.383 282.355 106.638L286.345 97.118L284.161 96.754L284.077 96.292H290.139L284.035 110.502C283.344 112.098 282.808 113.353 282.425 114.268C282.042 115.173 281.772 115.845 281.613 116.284C281.464 116.723 281.389 117.035 281.389 117.222C281.389 117.362 281.44 117.474 281.543 117.558C281.646 117.633 281.758 117.67 281.879 117.67C282.047 117.67 282.252 117.605 282.495 117.474C282.747 117.343 283.069 117.11 283.461 116.774C283.853 116.438 284.343 115.957 284.931 115.332L285.603 115.724C284.623 116.891 283.634 117.777 282.635 118.384C281.636 118.991 280.712 119.294 279.863 119.294ZM289.762 119.294C288.568 119.294 287.625 118.939 286.934 118.23C286.253 117.521 285.912 116.55 285.912 115.318C285.912 114.263 286.122 113.204 286.542 112.14C286.972 111.067 287.555 110.049 288.292 109.088C289.03 108.117 289.87 107.254 290.812 106.498C291.755 105.733 292.749 105.131 293.794 104.692C294.84 104.253 295.876 104.034 296.902 104.034C297.845 104.034 298.582 104.221 299.114 104.594C299.646 104.958 299.912 105.471 299.912 106.134C299.912 106.909 299.525 107.651 298.75 108.36C297.985 109.069 296.893 109.709 295.474 110.278C294.056 110.838 292.371 111.291 290.42 111.636C289.944 112.551 289.585 113.405 289.342 114.198C289.1 114.982 288.978 115.682 288.978 116.298C288.978 117.558 289.51 118.188 290.574 118.188C291.125 118.188 291.718 118.043 292.352 117.754C292.987 117.465 293.631 117.054 294.284 116.522C294.938 115.981 295.568 115.332 296.174 114.576L296.818 115.01C295.661 116.438 294.494 117.511 293.318 118.23C292.142 118.939 290.957 119.294 289.762 119.294ZM291.022 110.67C292.114 110.446 293.141 110.073 294.102 109.55C295.064 109.027 295.843 108.435 296.44 107.772C297.038 107.109 297.336 106.47 297.336 105.854C297.336 105.313 297.056 105.042 296.496 105.042C296.02 105.042 295.498 105.233 294.928 105.616C294.368 105.989 293.808 106.503 293.248 107.156C292.698 107.809 292.189 108.551 291.722 109.382L291.022 110.67Z" fill="black"/>
</svg>
